<svg width="66" height="62" viewBox="0 0 66 62" fill="none" xmlns="http://www.w3.org/2000/svg">
<path d="M66 53.5397C66 53.4259 66 53.3121 65.8862 53.1983C65.8862 53.1983 65.8862 53.1983 65.8862 53.0845C65.8862 52.9707 65.7724 52.8569 65.6586 52.7431L42.331 29.4155L56.7828 1.76379C57.0103 1.30862 56.8966 0.739656 56.5552 0.398276C56.2138 0.0568969 55.6448 -0.0568967 55.1897 0.284483L42.1034 8.25V1.19483C42.1034 0.739655 41.8759 0.398276 41.5345 0.17069C41.1931 -0.0568966 40.7379 -0.0568966 40.3966 0.17069L21.0517 11.55C20.9379 11.6638 20.8241 11.6638 20.8241 11.7776C20.7103 11.8914 20.7103 12.0052 20.5966 12.119C20.5966 12.119 20.5966 12.119 20.5966 12.2328C20.5966 12.3466 20.5966 12.4603 20.5966 12.5741V17.1259H1.13793C1.02414 17.1259 0.910345 17.1259 0.682758 17.2397H0.568965C0.455172 17.2397 0.455172 17.3535 0.341379 17.3535C0.341379 17.3535 0.227586 17.3534 0.227586 17.4672C0.113793 17.581 0.113793 17.6948 0 17.6948C0 17.6948 0 17.6948 0 17.8086C0 17.9224 0 18.15 0 18.2638V31.919C0 32.2603 0.227586 32.7155 0.568965 32.9431C0.682759 33.0569 0.910345 33.0569 1.13793 33.0569C1.36552 33.0569 1.47931 33.0569 1.5931 32.9431L10.3552 28.619L20.8241 38.519C20.8241 38.519 20.8241 38.519 20.9379 38.6328C21.0517 38.7466 21.1655 38.7466 21.1655 38.7466L40.5103 45.5741L54.9621 51.0362L63.9517 61.1638C64.1793 61.3914 64.5207 61.5052 64.7483 61.5052C64.8621 61.5052 64.9759 61.5052 65.2034 61.3914C65.6586 61.2776 65.8862 60.8224 65.8862 60.3672L66 53.5397ZM60.3103 50.581L42.1034 43.6397V32.3741L60.3103 50.581ZM52.8 4.38104L42.1034 24.9776V10.981L52.8 4.38104ZM39.8276 10.4121V27.1397L23.5552 12.8017L39.8276 3.2431V10.4121ZM22.7586 18.2638V15.0776L38.8034 29.3017L22.7586 35.9017V18.2638ZM20.4828 19.4017V34.9914L3.98276 19.4017H20.4828ZM2.27586 30.0983V20.881L8.64828 26.9121L2.27586 30.0983ZM24.8069 37.4948L39.8276 31.35V42.8431L24.8069 37.4948ZM59.6276 52.7431L63.7241 54.3362V57.4086L59.6276 52.7431Z" fill="black"/>
</svg>
