<svg width="65" height="64" viewBox="0 0 65 64" fill="none" xmlns="http://www.w3.org/2000/svg">
<path d="M47.8682 34.0215C48.0962 33.9776 48.3319 34.0014 48.5469 34.0889C48.7021 34.1603 48.8399 34.2635 48.9512 34.3916L49.0557 34.5303C49.15 34.6773 49.2098 34.8429 49.2334 35.0146L49.2451 35.1875V46.4424C49.2572 48.075 48.9414 49.6939 48.3164 51.2021C47.7304 52.6162 46.8834 53.9062 45.8213 55.0059L45.6064 55.2236L45.5996 55.2305L40.9629 59.8887C40.8509 59.9997 40.7182 60.0878 40.5723 60.1475C40.4261 60.2071 40.2692 60.2372 40.1113 60.2363H40.04L39.9707 60.2461C39.9171 60.2534 39.8626 60.2537 39.8086 60.251C39.6364 60.1894 39.4795 60.0915 39.3516 59.96C39.2065 59.8107 39.102 59.6263 39.0498 59.4248L39.042 59.3906L39.0303 59.3584L35.0557 47.4541C34.9905 47.2469 34.9825 47.0257 35.0332 46.8145C35.0712 46.6561 35.1407 46.5076 35.2373 46.3779L35.3428 46.2549L47.252 34.3457C47.4206 34.1793 47.6355 34.0663 47.8682 34.0215Z" stroke="black" stroke-width="2"/>
<path d="M16.8711 16H28.1133L28.2891 16.0146C28.4632 16.0414 28.6301 16.1058 28.7773 16.2051C28.9246 16.3043 29.0476 16.4346 29.1377 16.5859L29.2168 16.7441L29.2197 16.752C29.3115 16.9703 29.3368 17.2108 29.292 17.4434C29.2583 17.618 29.1862 17.7824 29.082 17.9248L28.9678 18.0586L17.0518 29.9746C16.9402 30.0846 16.8081 30.1722 16.6631 30.2314C16.5189 30.2903 16.3646 30.3195 16.209 30.3193C16.064 30.3161 15.9202 30.2936 15.7812 30.252H15.7803L3.83008 26.3486H3.83105C3.63859 26.2827 3.46547 26.1695 3.3291 26.0186C3.19271 25.8675 3.09678 25.6836 3.05078 25.4854L3.04688 25.4678L3.04199 25.4492L3.00977 25.2881C2.98881 25.1254 3.00183 24.9595 3.04785 24.8008C3.1092 24.5893 3.22721 24.3987 3.38965 24.25L3.40234 24.2383L3.41504 24.2256L8.07812 19.6514L8.08398 19.6455L8.08984 19.6387C9.23541 18.4753 10.603 17.5537 12.1113 16.9287C13.5254 16.3428 15.0368 16.0289 16.5654 16.002L16.8711 16Z" stroke="black" stroke-width="2"/>
<path d="M1 61.1572C0.979982 57.2046 1.74701 53.2872 3.25586 49.6338C4.76327 45.984 6.98077 42.6697 9.78027 39.8848L9.78125 39.8857L11.3428 38.3682L11.3486 38.3613L11.3555 38.3545C11.467 38.2421 11.6 38.1527 11.7461 38.0918C11.8921 38.031 12.0489 38 12.207 38C12.3652 38 12.522 38.0311 12.668 38.0918C12.7776 38.1375 12.8805 38.199 12.9717 38.2744L13.0586 38.3545L24.9824 50.2783L24.9961 50.293L25.0107 50.3057C25.1313 50.417 25.2286 50.5521 25.2949 50.7021C25.3612 50.8522 25.3953 51.0147 25.3965 51.1787C25.3976 51.3429 25.3651 51.5062 25.3008 51.6572C25.2365 51.8081 25.1424 51.9447 25.0234 52.0576L25.0166 52.0635L25.0098 52.0703L23.4922 53.5654L23.4844 53.5732C20.6979 56.3764 17.3817 58.5976 13.7285 60.1064C10.3034 61.521 6.64602 62.2832 2.94531 62.3564L2.20508 62.3613H2.2002C1.88213 62.3613 1.57649 62.2356 1.35156 62.0107C1.12663 61.7858 1 61.4802 1 61.1621V61.1572Z" stroke="black" stroke-width="2"/>
<path d="M61.8567 1H61.8596C62.1777 1 62.4833 1.12663 62.7083 1.35156C62.933 1.57639 63.0597 1.8813 63.0598 2.19922V2.20215C63.078 8.66101 61.8143 15.0599 59.343 21.0273C57.0262 26.6216 53.6911 31.7335 49.51 36.1035L48.6624 36.9668L32.053 53.5762C31.533 54.0979 30.9149 54.5124 30.2346 54.7949C29.5543 55.0774 28.8248 55.2226 28.0881 55.2227C27.3513 55.2227 26.6212 55.0775 25.9407 54.7949C25.3455 54.5477 24.7984 54.1992 24.3225 53.7666L24.1223 53.5762L24.1213 53.5742L10.4846 39.9385L10.4836 39.9375L10.2932 39.7373C9.86047 39.2613 9.51212 38.7136 9.26489 38.1182C8.98244 37.4378 8.83717 36.7083 8.83716 35.9717C8.83716 35.235 8.98246 34.5055 9.26489 33.8252C9.51211 33.2298 9.8605 32.682 10.2932 32.2061L10.4836 32.0059L27.092 15.3975C31.6468 10.8181 37.0652 7.1881 43.0325 4.7168C48.6268 2.39997 54.6001 1.14454 60.6467 1.01172L61.8567 1Z" stroke="black" stroke-width="2"/>
<path d="M30.4424 23.4351C31.8666 22.8446 33.434 22.6896 34.9463 22.9897C36.3643 23.2712 37.6744 23.9408 38.7314 24.9214L38.9395 25.1216C39.6643 25.8457 40.2395 26.7054 40.6318 27.6519C41.0242 28.5985 41.2266 29.6135 41.2266 30.6382C41.2265 31.6629 41.0242 32.6779 40.6318 33.6245C40.2885 34.4527 39.8052 35.2148 39.2041 35.8774L38.9395 36.1548C37.8486 37.2444 36.4587 37.9864 34.9463 38.2866C33.434 38.5867 31.8666 38.4317 30.4424 37.8413C29.0181 37.2509 27.8008 36.2513 26.9443 34.9692C26.088 33.6872 25.6309 32.18 25.6309 30.6382C25.6309 29.0964 26.088 27.5892 26.9443 26.3071C27.8007 25.0251 29.0181 24.0255 30.4424 23.4351Z" stroke="black" stroke-width="2"/>
<path d="M61.8599 1.00024C62.178 1.00024 62.4836 1.12687 62.7085 1.35181C62.9332 1.57667 63.059 1.88156 63.0591 2.19946V2.20044C63.0675 9.81159 61.2974 17.3088 57.9048 24.0999C56.2087 20.1216 53.7716 16.4941 50.7124 13.4182C47.6491 10.3382 44.0294 7.87941 40.0542 6.16138C46.8164 2.78025 54.28 1.0088 61.8599 1.00024Z" stroke="black" stroke-width="2"/>
</svg>
