<svg width="66" height="64" viewBox="0 0 66 64" fill="none" xmlns="http://www.w3.org/2000/svg">
<path d="M38.9147 37.5694C40.9963 39.7525 41.5547 42.9509 40.6155 45.6925C40.6409 45.7178 40.6155 45.7178 40.6155 45.7432C40.4886 46.124 40.3109 46.5022 40.1332 46.8576H40.6155C40.6409 46.8779 40.6155 46.8779 40.6155 46.8957V54.6811H38.0771V46.8601H37.1632L37.0871 46.784C39.0417 44.7278 39.0417 41.3771 37.0871 39.3209C35.234 37.3663 32.0355 37.3663 30.1824 39.3209L28.3294 37.5694C29.3194 36.5286 30.5632 35.8432 31.8832 35.5386H31.7309C31.7309 33.4317 30.0301 31.7309 27.9232 31.7309C25.8163 31.7309 24.1155 33.4317 24.1155 35.5386H21.5771C21.5771 32.0355 24.4201 29.1925 27.9232 29.1925C31.3755 29.1925 34.1678 31.934 34.2694 35.3609C35.9701 35.5132 37.6709 36.224 38.9147 37.5694ZM13.4794 28.7355C12.2609 28.1263 11.4232 26.8571 11.4232 25.3848C11.4232 23.2778 13.124 21.5771 15.2309 21.5771V19.0386C11.7278 19.0386 8.88475 21.8817 8.88475 25.3848C8.88475 28.0755 10.5855 30.3855 12.9463 31.2994C12.9209 31.4263 12.9209 31.5786 12.9209 31.7055C12.9209 32.264 12.9971 32.8225 13.0986 33.3555C10.5094 34.574 8.80859 37.3155 8.80859 40.3871C8.80859 43.0778 10.1286 45.4386 12.0832 46.8601H16.2717V45.6925C13.5555 45.6925 11.3471 43.2809 11.3471 40.3871C11.3471 38.0009 12.8447 35.9194 14.9771 35.3609L16.3478 35.0055L15.8401 33.6601C15.5863 33.0509 15.4594 32.3909 15.4594 31.7055C15.4594 28.8117 17.5917 26.4509 20.3078 26.4509V23.9125C17.1855 23.9125 14.5963 25.8925 13.4794 28.7355ZM46.3778 25.6894C43.6617 25.6894 41.4532 23.3286 41.4532 20.4348C41.4532 18.0232 42.9509 15.9671 45.0832 15.4086L46.454 15.0278L45.9463 13.7078C45.6924 13.0732 45.5655 12.4132 45.5655 11.7278C45.5655 8.83399 47.774 6.47323 50.4901 6.47323V5.25476C49.8301 4.874 49.1701 4.544 48.4847 4.23938C45.3371 5.15323 43.0271 8.17399 43.0271 11.7278C43.0271 12.2863 43.1032 12.8448 43.2047 13.4032C40.9455 14.4694 39.3717 16.6525 38.9909 19.2417C36.2747 19.9778 34.2694 22.4401 34.2694 25.3848C34.2694 28.8878 37.1124 31.7309 40.6155 31.7309V29.1925C38.5086 29.1925 36.8078 27.4917 36.8078 25.3848C36.8078 23.8363 37.7471 22.4909 39.0671 21.9325C39.7271 25.5117 42.7478 28.2278 46.3778 28.2278V25.6894ZM27.644 18.8609C31.7563 18.8609 35.1071 15.3578 35.1071 11.0678H32.5686C32.5686 13.9617 30.3601 16.3225 27.644 16.3225C25.4101 16.3225 23.4809 14.7486 22.9478 12.464L22.5924 10.9917L21.1963 11.6009C20.6378 11.8548 20.0286 11.9817 19.394 11.9817C16.6778 11.9817 14.4947 9.62092 14.4947 6.72707H13.7586C13.1747 7.13323 12.5909 7.53938 12.0578 7.94553C12.6163 11.6517 15.6878 14.5201 19.394 14.5201C19.9017 14.5201 20.4094 14.4694 20.8917 14.3425C22.0594 17.0586 24.674 18.8609 27.644 18.8609ZM60.2124 40.7171C59.4509 38.4578 57.7755 36.7063 55.6178 35.9194L55.694 35.8432C56.5824 34.7517 57.1155 33.3555 57.1155 31.8325C57.1155 28.3294 54.2724 25.4863 50.7694 25.4863V28.0248C52.8763 28.0248 54.5771 29.7255 54.5771 31.8325C54.5771 33.6094 53.3586 35.1071 51.7086 35.5132C51.6324 35.5386 50.9978 35.6909 50.7694 35.7925C48.5609 36.554 46.8094 38.3817 46.0986 40.6917C45.9971 41.0217 45.6924 42.6463 45.6924 43.154H48.2309C48.2309 43.0017 48.8401 40.7425 49.0432 40.4125C49.9063 38.9655 51.4294 38.0009 53.1555 38.0009C55.2371 38.0009 57.014 39.3717 57.7501 41.3009C57.8263 41.5801 58.0801 43.0017 58.0801 43.154H58.9686C59.4509 42.5701 59.9332 41.9863 60.3647 41.3517C60.2886 41.0471 60.2378 40.8186 60.2124 40.7171ZM43.154 54.6811H45.6924V46.8576H43.154V54.6811ZM48.2309 54.6811H50.7694V46.8576H48.2309V54.6811Z" fill="#818181"/>
<path d="M33 0C14.85 0 0 11.4002 0 30.6925C0 40.3387 7.425 48.2308 16.5 48.2308H33V50.7692C33 53.5742 35.2719 55.8462 38.0769 55.8462H45.6923V63.4615H53.3077V55.143C54.8181 54.2647 55.8462 52.6452 55.8462 50.7692V46.9641C62.7736 43.9484 66 35.8228 66 26.3086C66 9.42785 48.8806 0 33 0ZM50.7692 60.9231H48.2308V55.8462H50.7692V60.9231ZM53.3077 50.7692C53.3077 52.1679 52.1679 53.3077 50.7692 53.3077H38.0769C36.6782 53.3077 35.5385 52.1679 35.5385 50.7692V48.2308H53.3077V50.7692ZM49.5 45.6923H16.5C8.80085 45.6923 2.53846 38.9628 2.53846 30.6925C2.53846 14.1164 15.0658 2.53846 33 2.53846C47.9744 2.53846 63.4615 11.4282 63.4615 26.3086C63.4615 30.855 62.4538 45.6923 49.5 45.6923Z" fill="#222327"/>
<path d="M33 0C14.85 0 0 11.4002 0 30.6925C0 40.3387 7.425 48.2308 16.5 48.2308H33V50.7692C33 53.5742 35.2719 55.8462 38.0769 55.8462H45.6923V63.4615H53.3077V55.143C54.8181 54.2647 55.8462 52.6452 55.8462 50.7692V46.9641C62.7736 43.9484 66 35.8228 66 26.3086C66 9.42785 48.8806 0 33 0ZM50.7692 60.9231H48.2308V55.8462H50.7692V60.9231ZM53.3077 50.7692C53.3077 52.1679 52.1679 53.3077 50.7692 53.3077H38.0769C36.6782 53.3077 35.5385 52.1679 35.5385 50.7692V48.2308H53.3077V50.7692ZM49.5 45.6923H16.5C8.80085 45.6923 2.53846 38.9628 2.53846 30.6925C2.53846 14.1164 15.0658 2.53846 33 2.53846C47.9744 2.53846 63.4615 11.4282 63.4615 26.3086C63.4615 30.855 62.4538 45.6923 49.5 45.6923Z" fill="#222327"/>
</svg>
