<svg width="66" height="66" viewBox="0 0 66 66" fill="none" xmlns="http://www.w3.org/2000/svg">
<path d="M64.2055 55.5119L51.1665 42.4711L52.905 40.7323L51.1665 38.9935L45.9531 44.2075L37.2581 35.5136L47.7032 25.0625C49.0936 25.5583 50.5485 25.8096 52.0427 25.8096C55.4852 25.8096 58.7224 24.4675 61.1596 22.0346C64.918 18.2734 65.9833 12.6857 63.8758 7.79685L63.1587 6.13187L57.5557 11.7356L53.0457 11.7979L53.1056 7.49476L58.817 1.7826L57.1568 1.0631C55.529 0.357442 53.7973 0 52.0173 0C48.5725 0 45.3375 1.34214 42.9049 3.77505C39.3402 7.33795 38.1943 12.5428 39.8821 17.2426L29.4393 27.6868L14.6617 12.9094L16.4002 11.1706L6.84283 1.60964L1.62259 6.82369L11.1846 16.387L12.9208 14.6482L27.6984 29.4256L17.2556 39.8698C15.8607 39.3694 14.3988 39.118 12.9024 39.118C9.45987 39.118 6.22259 40.4602 3.7877 42.8931C0.022396 46.6566 -1.04287 52.2535 1.07613 57.147L1.79553 58.8073L7.50689 53.0952L11.8071 53.0375L11.7449 57.5482L6.14188 63.152L7.80664 63.8692C9.4299 64.5679 11.1546 64.9254 12.9277 64.9254C16.3725 64.9254 19.6075 63.5855 22.0401 61.1526C25.6002 57.592 26.7462 52.3918 25.0699 47.7013L35.5196 37.2501L44.2146 45.9417L38.9967 51.1604L40.7352 52.8992L42.4738 51.1604L55.5105 64.199C56.6703 65.3612 58.2175 66 59.8569 66C61.4963 66 63.0411 65.3612 64.2032 64.199C66.5989 61.8029 66.5989 57.9034 64.2032 55.5073L64.2055 55.5119ZM5.10199 6.826L6.84053 5.08952L12.9231 11.173L11.1846 12.9117L5.10199 6.826ZM22.5082 47.8927C24.2121 51.8499 23.3475 56.3767 20.3062 59.4208C18.3371 61.3901 15.72 62.474 12.9323 62.474C12.1322 62.474 11.3437 62.3841 10.5782 62.2065L14.1959 58.5883L14.3043 50.5516L6.47852 50.6577L2.7455 54.3912C1.92465 50.909 2.93227 47.2354 5.53086 44.6388C7.49998 42.6694 10.1193 41.5832 12.907 41.5832C14.3504 41.5832 15.75 41.8715 17.0712 42.4434L17.839 42.7755L42.785 17.826L42.453 17.0581C40.7375 13.0939 41.5999 8.56709 44.6481 5.51845C46.6172 3.54906 49.2365 2.46289 52.0219 2.46289C52.8289 2.46289 53.6244 2.55514 54.3968 2.7327L50.6661 6.46394L50.5577 14.2908L58.5933 14.1824L62.2134 10.5618C63.025 14.0371 62.0151 17.7038 59.4257 20.2958C57.4543 22.2652 54.8349 23.3514 52.0473 23.3514C50.6085 23.3514 49.2112 23.0631 47.8946 22.4958L47.1291 22.166L22.1784 47.1247L22.5082 47.8927ZM62.4693 62.4648C61.773 63.1612 60.8461 63.5463 59.8615 63.5463C58.8769 63.5463 57.95 63.1612 57.2537 62.4648L44.2169 49.4262L49.4325 44.2099L62.4716 57.2507C63.9104 58.6897 63.9104 61.0281 62.4739 62.4648H62.4693Z" fill="black"/>
</svg>
