<svg width="70" height="50" viewBox="0 0 70 50" fill="none" xmlns="http://www.w3.org/2000/svg">
<path fill-rule="evenodd" clip-rule="evenodd" d="M53.7044 48.2093C61.3089 48.4861 67.703 42.557 68 34.9531V15.2654C67.703 7.66178 61.3089 1.73248 53.7044 2.00931H16.2956C8.69118 1.73248 2.29693 7.66178 2 15.2654V34.9531C2.29693 42.557 8.69118 48.4861 16.2956 48.2093H53.7044Z" stroke="black" stroke-width="2.5" stroke-linecap="round" stroke-linejoin="round"/>
<path fill-rule="evenodd" clip-rule="evenodd" d="M33.3763 15.7869L43.8076 22.8751C44.4834 23.2698 44.8989 23.9935 44.8989 24.7759C44.8989 25.5587 44.4834 26.2824 43.8076 26.6767L33.3763 34.4317C31.3963 35.7748 28.3999 34.6297 28.3999 32.5309V17.6811C28.3999 15.5922 31.3996 14.4438 33.3763 15.7869Z" stroke="black" stroke-width="2.5" stroke-linecap="round" stroke-linejoin="round"/>
</svg>
