<svg width="24" height="24" viewBox="0 0 24 24" fill="none" xmlns="http://www.w3.org/2000/svg">
<path d="M13.234 0C14.5839 0.00359991 15.2691 0.0107997 15.8607 0.0275993L16.0935 0.0359991C16.3623 0.0455989 16.6275 0.0575985 16.9479 0.0719982C18.2246 0.131997 19.0958 0.333592 19.8602 0.629985C20.6522 0.934778 21.3194 1.34757 21.9866 2.01355C22.597 2.61322 23.0691 3.33889 23.3701 4.1399C23.6665 4.90428 23.8681 5.77546 23.9281 7.05343C23.9425 7.37262 23.9545 7.63782 23.9641 7.90781L23.9713 8.1406C23.9893 8.73099 23.9965 9.41617 23.9989 10.7661L24.0001 11.6613V13.2333C24.003 14.1085 23.9938 14.9838 23.9725 15.8588L23.9653 16.0916C23.9557 16.3616 23.9437 16.6268 23.9293 16.946C23.8693 18.224 23.6653 19.0939 23.3701 19.8595C23.0691 20.6605 22.597 21.3862 21.9866 21.9859C21.3869 22.5963 20.6612 23.0685 19.8602 23.3694C19.0958 23.6658 18.2246 23.8674 16.9479 23.9274L16.0935 23.9634L15.8607 23.9706C15.2691 23.9874 14.5839 23.9958 13.234 23.9982L12.3388 23.9994H10.768C9.89236 24.0025 9.01669 23.9933 8.14129 23.9718L7.90849 23.9646C7.62363 23.9538 7.33883 23.9414 7.05411 23.9274C5.77734 23.8674 4.90616 23.6658 4.14058 23.3694C3.34 23.0683 2.61475 22.5961 2.01543 21.9859C1.40458 21.3863 0.931991 20.6606 0.630667 19.8595C0.334275 19.0951 0.132679 18.224 0.0726807 16.946L0.0366816 16.0916L0.0306819 15.8588C0.00856171 14.9838 -0.00143912 14.1086 0.00068254 13.2333V10.7661C-0.00263885 9.89088 0.00616187 9.01562 0.027082 8.1406L0.0354818 7.90781C0.0450815 7.63782 0.0570812 7.37262 0.0714808 7.05343C0.131479 5.77546 0.333074 4.90548 0.629467 4.1399C0.931493 3.33856 1.40492 2.61286 2.01663 2.01355C2.6156 1.40342 3.34043 0.931266 4.14058 0.629985C4.90616 0.333592 5.77614 0.131997 7.05411 0.0719982C7.3733 0.0575985 7.6397 0.0455989 7.90849 0.0359991L8.14129 0.0287992C9.0163 0.00747907 9.89156 -0.0017216 10.7668 0.00119988L13.234 0ZM12.0004 5.99985C10.4091 5.99985 8.88305 6.63198 7.75785 7.75717C6.63266 8.88236 6.00054 10.4084 6.00054 11.9997C6.00054 13.591 6.63266 15.1171 7.75785 16.2422C8.88305 17.3674 10.4091 17.9996 12.0004 17.9996C13.5917 17.9996 15.1177 17.3674 16.2429 16.2422C17.3681 15.1171 18.0002 13.591 18.0002 11.9997C18.0002 10.4084 17.3681 8.88236 16.2429 7.75717C15.1177 6.63198 13.5917 5.99985 12.0004 5.99985ZM12.0004 8.3998C12.4731 8.39972 12.9413 8.49275 13.3781 8.67359C13.8149 8.85443 14.2118 9.11954 14.5461 9.45376C14.8804 9.78799 15.1457 10.1848 15.3266 10.6215C15.5076 11.0583 15.6008 11.5264 15.6009 11.9991C15.601 12.4719 15.5079 12.94 15.3271 13.3768C15.1463 13.8136 14.8812 14.2105 14.5469 14.5448C14.2127 14.8791 13.8159 15.1444 13.3792 15.3254C12.9424 15.5064 12.4743 15.5995 12.0016 15.5996C11.0468 15.5996 10.1312 15.2203 9.45607 14.5452C8.78095 13.8701 8.40168 12.9545 8.40168 11.9997C8.40168 11.045 8.78095 10.1293 9.45607 9.45419C10.1312 8.77907 11.0468 8.3998 12.0016 8.3998M18.3014 4.1999C17.9036 4.1999 17.5221 4.35793 17.2408 4.63923C16.9595 4.92053 16.8015 5.30205 16.8015 5.69986C16.8015 6.09768 16.9595 6.4792 17.2408 6.7605C17.5221 7.04179 17.9036 7.19983 18.3014 7.19983C18.6993 7.19983 19.0808 7.04179 19.3621 6.7605C19.6434 6.4792 19.8014 6.09768 19.8014 5.69986C19.8014 5.30205 19.6434 4.92053 19.3621 4.63923C19.0808 4.35793 18.6993 4.1999 18.3014 4.1999Z" fill="#0077C3"/>
</svg>
