<svg width="24" height="24" viewBox="0 0 24 24" fill="none" xmlns="http://www.w3.org/2000/svg">
<path d="M20.448 20.4516H16.8936V14.8836C16.8936 13.5552 16.866 11.8464 15.0408 11.8464C13.188 11.8464 12.9048 13.2912 12.9048 14.7852V20.4516H9.3516V9H12.7644V10.56H12.8112C13.2876 9.66 14.448 8.712 16.1808 8.712C19.782 8.712 20.448 11.0808 20.448 14.166V20.4516ZM5.3364 7.4328C4.1916 7.4328 3.2724 6.5076 3.2724 5.3688C3.2724 4.23 4.1928 3.3048 5.3364 3.3048C5.88381 3.3048 6.40879 3.52226 6.79587 3.90933C7.18294 4.29641 7.4004 4.82139 7.4004 5.3688C7.4004 5.91621 7.18294 6.44119 6.79587 6.82827C6.40879 7.21534 5.88381 7.4328 5.3364 7.4328ZM7.1172 20.4528H3.5532V9H7.1172V20.4528ZM22.2264 0H1.7712C0.792 0 0 0.774 0 1.728V22.272C0 23.226 0.792 24 1.7712 24H22.2216C23.1996 24 24 23.2272 24 22.272V1.728C24 0.7752 23.1996 0 22.2216 0H22.2264Z" fill="#0077C3"/>
</svg>
