<svg width="35" height="24" viewBox="0 0 35 24" fill="none" xmlns="http://www.w3.org/2000/svg">
<path d="M34.1489 8.45793C34.2256 6.23712 33.74 4.03293 32.737 2.05001C32.0565 1.23638 31.1121 0.6873 30.0683 0.49846C25.7512 0.105663 21.4161 -0.0548958 17.0818 0.0174783C12.7633 -0.0554588 8.44394 0.0999137 4.14183 0.482945C3.2913 0.637661 2.5042 1.0366 1.87657 1.63109C0.480167 2.91888 0.325012 5.12209 0.169856 6.98396C-0.0566187 10.3315 -0.0566187 13.6905 0.169856 17.038C0.215323 18.0859 0.371344 19.126 0.635322 20.1411C0.822401 20.9248 1.2009 21.6498 1.73693 22.2513C2.36882 22.8772 3.17426 23.2989 4.04874 23.4615C7.39368 23.8753 10.7642 24.0464 14.1338 23.9735C19.5643 24.0511 24.3276 23.9735 29.9597 23.539C30.855 23.3846 31.6826 22.9627 32.3336 22.3288C32.7675 21.8939 33.0919 21.3621 33.28 20.7773C33.8344 19.0745 34.1069 17.2926 34.0868 15.502C34.1489 14.6331 34.1489 9.38887 34.1489 8.45793ZM13.5753 16.4329V6.8288L22.7605 11.6541C20.1849 13.0816 16.787 14.6952 13.5753 16.4329Z" fill="#0077C3"/>
</svg>
